<mxfile host="app.diagrams.net" modified="2021-05-06T23:35:08.419Z" agent="5.0 (Windows)" etag="7CGPCrDOZkIRQW2q0kNS" version="14.6.10" type="github">
  <diagram id="RHEFi12OLSQvbvv0maX6" name="Page-1">
    <mxGraphModel dx="858" dy="471" grid="1" gridSize="10" guides="1" tooltips="1" connect="1" arrows="1" fold="1" page="1" pageScale="1" pageWidth="850" pageHeight="1100" math="0" shadow="0">
      <root>
        <mxCell id="0" />
        <mxCell id="1" parent="0" />
      </root>
    </mxGraphModel>
  </diagram>
</mxfile>
